<mxfile host="Electron" agent="Mozilla/5.0 (Windows NT 10.0; Win64; x64) AppleWebKit/537.36 (KHTML, like Gecko) draw.io/26.2.2 Chrome/134.0.6998.178 Electron/35.1.2 Safari/537.36" version="26.2.2">
  <diagram name="Страница — 1" id="OwASYQYWGaAMeQ3EvacW">
    <mxGraphModel dx="4536" dy="2524" grid="0" gridSize="10" guides="1" tooltips="1" connect="1" arrows="1" fold="1" page="0" pageScale="1" pageWidth="827" pageHeight="1169" math="0" shadow="0">
      <root>
        <mxCell id="0" />
        <mxCell id="1" parent="0" />
        <mxCell id="Zl_5W15unoSEE-bIJKQG-1" value="" style="shape=table;startSize=0;container=1;collapsible=0;childLayout=tableLayout;fontSize=16;" parent="1" vertex="1">
          <mxGeometry x="-338" y="20" width="2830" height="1165.6295844184024" as="geometry" />
        </mxCell>
        <mxCell id="Zl_5W15unoSEE-bIJKQG-2" value="" style="shape=tableRow;horizontal=0;startSize=0;swimlaneHead=0;swimlaneBody=0;strokeColor=inherit;top=0;left=0;bottom=0;right=0;collapsible=0;dropTarget=0;fillColor=none;points=[[0,0.5],[1,0.5]];portConstraint=eastwest;fontSize=16;" parent="Zl_5W15unoSEE-bIJKQG-1" vertex="1">
          <mxGeometry width="2830" height="134" as="geometry" />
        </mxCell>
        <mxCell id="Zl_5W15unoSEE-bIJKQG-3" value="" style="shape=partialRectangle;html=1;whiteSpace=wrap;connectable=0;strokeColor=inherit;overflow=hidden;fillColor=none;top=0;left=0;bottom=0;right=0;pointerEvents=1;fontSize=16;" parent="Zl_5W15unoSEE-bIJKQG-2" vertex="1">
          <mxGeometry width="565" height="134" as="geometry">
            <mxRectangle width="565" height="134" as="alternateBounds" />
          </mxGeometry>
        </mxCell>
        <mxCell id="Zl_5W15unoSEE-bIJKQG-4" value="Q1" style="shape=partialRectangle;html=1;whiteSpace=wrap;connectable=0;strokeColor=#6c8ebf;overflow=hidden;fillColor=#dae8fc;top=0;left=0;bottom=0;right=0;pointerEvents=1;fontSize=16;" parent="Zl_5W15unoSEE-bIJKQG-2" vertex="1">
          <mxGeometry x="565" width="569" height="134" as="geometry">
            <mxRectangle width="569" height="134" as="alternateBounds" />
          </mxGeometry>
        </mxCell>
        <mxCell id="Zl_5W15unoSEE-bIJKQG-5" value="Q2" style="shape=partialRectangle;html=1;whiteSpace=wrap;connectable=0;strokeColor=#82b366;overflow=hidden;fillColor=#d5e8d4;top=0;left=0;bottom=0;right=0;pointerEvents=1;fontSize=16;" parent="Zl_5W15unoSEE-bIJKQG-2" vertex="1">
          <mxGeometry x="1134" width="565" height="134" as="geometry">
            <mxRectangle width="565" height="134" as="alternateBounds" />
          </mxGeometry>
        </mxCell>
        <mxCell id="Zl_5W15unoSEE-bIJKQG-14" value="Q3" style="shape=partialRectangle;html=1;whiteSpace=wrap;connectable=0;strokeColor=#d79b00;overflow=hidden;fillColor=#ffe6cc;top=0;left=0;bottom=0;right=0;pointerEvents=1;fontSize=16;" parent="Zl_5W15unoSEE-bIJKQG-2" vertex="1">
          <mxGeometry x="1699" width="566" height="134" as="geometry">
            <mxRectangle width="566" height="134" as="alternateBounds" />
          </mxGeometry>
        </mxCell>
        <mxCell id="Zl_5W15unoSEE-bIJKQG-17" value="Q4" style="shape=partialRectangle;html=1;whiteSpace=wrap;connectable=0;strokeColor=#d6b656;overflow=hidden;fillColor=#fff2cc;top=0;left=0;bottom=0;right=0;pointerEvents=1;fontSize=16;" parent="Zl_5W15unoSEE-bIJKQG-2" vertex="1">
          <mxGeometry x="2265" width="565" height="134" as="geometry">
            <mxRectangle width="565" height="134" as="alternateBounds" />
          </mxGeometry>
        </mxCell>
        <mxCell id="Zl_5W15unoSEE-bIJKQG-6" value="" style="shape=tableRow;horizontal=0;startSize=0;swimlaneHead=0;swimlaneBody=0;strokeColor=inherit;top=0;left=0;bottom=0;right=0;collapsible=0;dropTarget=0;fillColor=none;points=[[0,0.5],[1,0.5]];portConstraint=eastwest;fontSize=16;" parent="Zl_5W15unoSEE-bIJKQG-1" vertex="1">
          <mxGeometry y="134" width="2830" height="346" as="geometry" />
        </mxCell>
        <mxCell id="Zl_5W15unoSEE-bIJKQG-7" value="Инфраструктурная команда (15 человек)" style="shape=partialRectangle;html=1;whiteSpace=wrap;connectable=0;strokeColor=inherit;overflow=hidden;fillColor=none;top=0;left=0;bottom=0;right=0;pointerEvents=1;fontSize=16;" parent="Zl_5W15unoSEE-bIJKQG-6" vertex="1">
          <mxGeometry width="565" height="346" as="geometry">
            <mxRectangle width="565" height="346" as="alternateBounds" />
          </mxGeometry>
        </mxCell>
        <mxCell id="Zl_5W15unoSEE-bIJKQG-8" value="" style="shape=partialRectangle;html=1;whiteSpace=wrap;connectable=0;strokeColor=inherit;overflow=hidden;fillColor=none;top=0;left=0;bottom=0;right=0;pointerEvents=1;fontSize=16;" parent="Zl_5W15unoSEE-bIJKQG-6" vertex="1">
          <mxGeometry x="565" width="569" height="346" as="geometry">
            <mxRectangle width="569" height="346" as="alternateBounds" />
          </mxGeometry>
        </mxCell>
        <mxCell id="Zl_5W15unoSEE-bIJKQG-9" value="" style="shape=partialRectangle;html=1;whiteSpace=wrap;connectable=0;strokeColor=inherit;overflow=hidden;fillColor=none;top=0;left=0;bottom=0;right=0;pointerEvents=1;fontSize=16;" parent="Zl_5W15unoSEE-bIJKQG-6" vertex="1">
          <mxGeometry x="1134" width="565" height="346" as="geometry">
            <mxRectangle width="565" height="346" as="alternateBounds" />
          </mxGeometry>
        </mxCell>
        <mxCell id="Zl_5W15unoSEE-bIJKQG-15" style="shape=partialRectangle;html=1;whiteSpace=wrap;connectable=0;strokeColor=inherit;overflow=hidden;fillColor=none;top=0;left=0;bottom=0;right=0;pointerEvents=1;fontSize=16;" parent="Zl_5W15unoSEE-bIJKQG-6" vertex="1">
          <mxGeometry x="1699" width="566" height="346" as="geometry">
            <mxRectangle width="566" height="346" as="alternateBounds" />
          </mxGeometry>
        </mxCell>
        <mxCell id="Zl_5W15unoSEE-bIJKQG-18" style="shape=partialRectangle;html=1;whiteSpace=wrap;connectable=0;strokeColor=inherit;overflow=hidden;fillColor=none;top=0;left=0;bottom=0;right=0;pointerEvents=1;fontSize=16;" parent="Zl_5W15unoSEE-bIJKQG-6" vertex="1">
          <mxGeometry x="2265" width="565" height="346" as="geometry">
            <mxRectangle width="565" height="346" as="alternateBounds" />
          </mxGeometry>
        </mxCell>
        <mxCell id="Zl_5W15unoSEE-bIJKQG-10" value="" style="shape=tableRow;horizontal=0;startSize=0;swimlaneHead=0;swimlaneBody=0;strokeColor=inherit;top=0;left=0;bottom=0;right=0;collapsible=0;dropTarget=0;fillColor=none;points=[[0,0.5],[1,0.5]];portConstraint=eastwest;fontSize=16;" parent="Zl_5W15unoSEE-bIJKQG-1" vertex="1">
          <mxGeometry y="480" width="2830" height="343" as="geometry" />
        </mxCell>
        <mxCell id="Zl_5W15unoSEE-bIJKQG-11" value="Команда аналитиков (5 человек)" style="shape=partialRectangle;html=1;whiteSpace=wrap;connectable=0;strokeColor=inherit;overflow=hidden;fillColor=none;top=0;left=0;bottom=0;right=0;pointerEvents=1;fontSize=16;" parent="Zl_5W15unoSEE-bIJKQG-10" vertex="1">
          <mxGeometry width="565" height="343" as="geometry">
            <mxRectangle width="565" height="343" as="alternateBounds" />
          </mxGeometry>
        </mxCell>
        <mxCell id="Zl_5W15unoSEE-bIJKQG-12" value="" style="shape=partialRectangle;html=1;whiteSpace=wrap;connectable=0;strokeColor=inherit;overflow=hidden;fillColor=none;top=0;left=0;bottom=0;right=0;pointerEvents=1;fontSize=16;" parent="Zl_5W15unoSEE-bIJKQG-10" vertex="1">
          <mxGeometry x="565" width="569" height="343" as="geometry">
            <mxRectangle width="569" height="343" as="alternateBounds" />
          </mxGeometry>
        </mxCell>
        <mxCell id="Zl_5W15unoSEE-bIJKQG-13" value="" style="shape=partialRectangle;html=1;whiteSpace=wrap;connectable=0;strokeColor=inherit;overflow=hidden;fillColor=none;top=0;left=0;bottom=0;right=0;pointerEvents=1;fontSize=16;" parent="Zl_5W15unoSEE-bIJKQG-10" vertex="1">
          <mxGeometry x="1134" width="565" height="343" as="geometry">
            <mxRectangle width="565" height="343" as="alternateBounds" />
          </mxGeometry>
        </mxCell>
        <mxCell id="Zl_5W15unoSEE-bIJKQG-16" style="shape=partialRectangle;html=1;whiteSpace=wrap;connectable=0;strokeColor=inherit;overflow=hidden;fillColor=none;top=0;left=0;bottom=0;right=0;pointerEvents=1;fontSize=16;" parent="Zl_5W15unoSEE-bIJKQG-10" vertex="1">
          <mxGeometry x="1699" width="566" height="343" as="geometry">
            <mxRectangle width="566" height="343" as="alternateBounds" />
          </mxGeometry>
        </mxCell>
        <mxCell id="Zl_5W15unoSEE-bIJKQG-19" style="shape=partialRectangle;html=1;whiteSpace=wrap;connectable=0;strokeColor=inherit;overflow=hidden;fillColor=none;top=0;left=0;bottom=0;right=0;pointerEvents=1;fontSize=16;" parent="Zl_5W15unoSEE-bIJKQG-10" vertex="1">
          <mxGeometry x="2265" width="565" height="343" as="geometry">
            <mxRectangle width="565" height="343" as="alternateBounds" />
          </mxGeometry>
        </mxCell>
        <mxCell id="Zl_5W15unoSEE-bIJKQG-28" style="shape=tableRow;horizontal=0;startSize=0;swimlaneHead=0;swimlaneBody=0;strokeColor=inherit;top=0;left=0;bottom=0;right=0;collapsible=0;dropTarget=0;fillColor=none;points=[[0,0.5],[1,0.5]];portConstraint=eastwest;fontSize=16;" parent="Zl_5W15unoSEE-bIJKQG-1" vertex="1">
          <mxGeometry y="823" width="2830" height="343" as="geometry" />
        </mxCell>
        <mxCell id="Zl_5W15unoSEE-bIJKQG-29" value="Команда ИИ (5 человек)" style="shape=partialRectangle;html=1;whiteSpace=wrap;connectable=0;strokeColor=inherit;overflow=hidden;fillColor=none;top=0;left=0;bottom=0;right=0;pointerEvents=1;fontSize=16;" parent="Zl_5W15unoSEE-bIJKQG-28" vertex="1">
          <mxGeometry width="565" height="343" as="geometry">
            <mxRectangle width="565" height="343" as="alternateBounds" />
          </mxGeometry>
        </mxCell>
        <mxCell id="Zl_5W15unoSEE-bIJKQG-30" style="shape=partialRectangle;html=1;whiteSpace=wrap;connectable=0;strokeColor=inherit;overflow=hidden;fillColor=none;top=0;left=0;bottom=0;right=0;pointerEvents=1;fontSize=16;" parent="Zl_5W15unoSEE-bIJKQG-28" vertex="1">
          <mxGeometry x="565" width="569" height="343" as="geometry">
            <mxRectangle width="569" height="343" as="alternateBounds" />
          </mxGeometry>
        </mxCell>
        <mxCell id="Zl_5W15unoSEE-bIJKQG-31" style="shape=partialRectangle;html=1;whiteSpace=wrap;connectable=0;strokeColor=inherit;overflow=hidden;fillColor=none;top=0;left=0;bottom=0;right=0;pointerEvents=1;fontSize=16;" parent="Zl_5W15unoSEE-bIJKQG-28" vertex="1">
          <mxGeometry x="1134" width="565" height="343" as="geometry">
            <mxRectangle width="565" height="343" as="alternateBounds" />
          </mxGeometry>
        </mxCell>
        <mxCell id="Zl_5W15unoSEE-bIJKQG-32" style="shape=partialRectangle;html=1;whiteSpace=wrap;connectable=0;strokeColor=inherit;overflow=hidden;fillColor=none;top=0;left=0;bottom=0;right=0;pointerEvents=1;fontSize=16;" parent="Zl_5W15unoSEE-bIJKQG-28" vertex="1">
          <mxGeometry x="1699" width="566" height="343" as="geometry">
            <mxRectangle width="566" height="343" as="alternateBounds" />
          </mxGeometry>
        </mxCell>
        <mxCell id="Zl_5W15unoSEE-bIJKQG-33" style="shape=partialRectangle;html=1;whiteSpace=wrap;connectable=0;strokeColor=inherit;overflow=hidden;fillColor=none;top=0;left=0;bottom=0;right=0;pointerEvents=1;fontSize=16;" parent="Zl_5W15unoSEE-bIJKQG-28" vertex="1">
          <mxGeometry x="2265" width="565" height="343" as="geometry">
            <mxRectangle width="565" height="343" as="alternateBounds" />
          </mxGeometry>
        </mxCell>
        <mxCell id="Zl_5W15unoSEE-bIJKQG-20" value="Проработка архитектуры по трансформации" style="rounded=1;whiteSpace=wrap;html=1;fillColor=#dae8fc;strokeColor=#6c8ebf;" parent="1" vertex="1">
          <mxGeometry x="261" y="192" width="266" height="60" as="geometry" />
        </mxCell>
        <mxCell id="Zl_5W15unoSEE-bIJKQG-21" value="Уточнение границ доменов" style="rounded=1;whiteSpace=wrap;html=1;fillColor=#dae8fc;strokeColor=#6c8ebf;" parent="1" vertex="1">
          <mxGeometry x="361" y="279" width="166" height="60" as="geometry" />
        </mxCell>
        <mxCell id="Zl_5W15unoSEE-bIJKQG-34" value="Планирование проектов развития витрины данных" style="rounded=1;whiteSpace=wrap;html=1;fillColor=#dae8fc;strokeColor=#6c8ebf;" parent="1" vertex="1">
          <mxGeometry x="361" y="365" width="166" height="60" as="geometry" />
        </mxCell>
        <mxCell id="Zl_5W15unoSEE-bIJKQG-35" value="Разработка витрины данных" style="rounded=1;whiteSpace=wrap;html=1;fillColor=#ffe6cc;strokeColor=#d79b00;" parent="1" vertex="1">
          <mxGeometry x="1363" y="544" width="253" height="60" as="geometry" />
        </mxCell>
        <mxCell id="Zl_5W15unoSEE-bIJKQG-36" value="Развертывание новой инфраструктуры" style="rounded=1;whiteSpace=wrap;html=1;fillColor=#dae8fc;strokeColor=#6c8ebf;" parent="1" vertex="1">
          <mxGeometry x="534" y="192" width="818" height="60" as="geometry" />
        </mxCell>
        <mxCell id="Zl_5W15unoSEE-bIJKQG-39" value="Обучение пользователей и операционная поддержка" style="rounded=1;whiteSpace=wrap;html=1;fillColor=#fff2cc;strokeColor=#d6b656;" parent="1" vertex="1">
          <mxGeometry x="1620" y="609" width="650" height="60" as="geometry" />
        </mxCell>
        <mxCell id="Zl_5W15unoSEE-bIJKQG-41" value="Миграция данных в новую инфраструктуру" style="rounded=1;whiteSpace=wrap;html=1;fillColor=#ffe6cc;strokeColor=#d79b00;" parent="1" vertex="1">
          <mxGeometry x="1363" y="371" width="561" height="60" as="geometry" />
        </mxCell>
        <mxCell id="k0VsG6QDvRHRxI-edKjb-6" value="Корректировака источников для моделей ИИ" style="rounded=1;whiteSpace=wrap;html=1;fillColor=#ffe6cc;strokeColor=#d79b00;" vertex="1" parent="1">
          <mxGeometry x="1671" y="954" width="253" height="60" as="geometry" />
        </mxCell>
      </root>
    </mxGraphModel>
  </diagram>
</mxfile>
